<?xml version="1.0" encoding="UTF-8"?>
<svg version="1.1" xmlns="http://www.w3.org/2000/svg" width="256" height="256">
<path d="M0 0 C84.48 0 168.96 0 256 0 C256 84.48 256 168.96 256 256 C171.52 256 87.04 256 0 256 C0 171.52 0 87.04 0 0 Z " fill="#01071E" transform="translate(0,0)"/>
<path d="M0 0 C1.89508761 0.04517897 3.79027822 0.0862376 5.68554688 0.12304688 C10.31375103 0.22188767 14.93699269 0.37697228 19.5625 0.5625 C15.85369701 5.61988463 12.01021812 10.47424064 7.875 15.1875 C3.80126868 19.88092611 -0.13332735 24.64823012 -3.9375 29.5625 C-7.64360396 34.34763008 -11.46938454 38.99234324 -15.4375 43.5625 C-19.92473385 48.73229086 -24.22669024 54.01042061 -28.40722656 59.43115234 C-30.66221635 62.34515341 -32.95653275 65.19494371 -35.3828125 67.96875 C-35.85380371 68.51128418 -36.32479492 69.05381836 -36.81005859 69.61279297 C-38.10827295 71.09692671 -39.42088184 72.56843366 -40.734375 74.0390625 C-42.60306972 76.32757241 -42.60306972 76.32757241 -42.5078125 78.53125 C-40.93379717 81.51843238 -38.79244433 83.93146732 -36.5625 86.4375 C-32.55346151 91.05078413 -28.67918412 95.72977266 -24.9375 100.5625 C-21.37110569 105.1540265 -17.7191813 109.6466237 -13.9375 114.0625 C-9.75188625 118.95298915 -5.73659345 123.9493517 -1.78881836 129.03320312 C2.61916744 134.68820035 7.1883805 140.2058683 11.79223633 145.70214844 C12.35450928 146.37793945 12.91678223 147.05373047 13.49609375 147.75 C13.99165771 148.34167969 14.48722168 148.93335938 14.99780273 149.54296875 C16.99776411 152.12428884 18.77430921 154.83156788 20.5625 157.5625 C15.37113097 157.91222948 10.18677607 158.16412605 4.98632812 158.33154297 C3.22404504 158.40137778 1.46255641 158.49650619 -0.296875 158.61865234 C-14.47761236 159.57746356 -14.47761236 159.57746356 -19.40701294 156.22174072 C-22.9297346 152.96769668 -25.6915159 149.25273772 -28.31314087 145.25392151 C-29.85135442 142.9399211 -31.60011339 140.82269275 -33.375 138.6875 C-33.99375 137.90503906 -34.6125 137.12257812 -35.25 136.31640625 C-38.09822406 132.7306956 -40.98572162 129.17766265 -43.875 125.625 C-44.4313916 124.94066895 -44.9877832 124.25633789 -45.56103516 123.55126953 C-50.17529852 117.87914808 -54.80143619 112.21682072 -59.4375 106.5625 C-59.46328125 107.63886719 -59.4890625 108.71523437 -59.515625 109.82421875 C-60.01075017 124.22590297 -62.05481226 136.3807671 -72.71875 146.7890625 C-78.75439002 152.33479667 -78.75439002 152.33479667 -82.4375 153.5625 C-81.31475238 150.71244834 -80.14316698 147.91496735 -78.875 145.125 C-76.70961145 139.7586023 -76.31428356 134.90262772 -76.42260742 129.15258789 C-76.45078804 127.27386742 -76.45078804 127.27386742 -76.47953796 125.35719299 C-76.4906983 124.69444429 -76.50185863 124.03169559 -76.51335716 123.3488636 C-76.57518044 119.04024116 -76.57464257 114.73104819 -76.58596325 110.42205143 C-76.59934079 106.65874929 -76.63384758 102.89799107 -76.71508789 99.13549805 C-77.31134379 70.11614193 -77.31134379 70.11614193 -69.7421875 61.5 C-68.16527897 59.87612405 -66.55807315 58.34185793 -64.85714722 56.84890747 C-62.9541713 55.1245337 -61.50595682 53.18199936 -60.02734375 51.08984375 C-59.35844116 50.18782227 -59.35844116 50.18782227 -58.67602539 49.26757812 C-58.24668701 48.68427734 -57.81734863 48.10097656 -57.375 47.5 C-49.23043545 36.55319162 -40.75901657 25.88649733 -32.11547852 15.33007812 C-31.60815186 14.70939453 -31.1008252 14.08871094 -30.578125 13.44921875 C-30.04968994 12.83151611 -29.52125488 12.21381348 -28.97680664 11.57739258 C-27.347787 9.57618563 -27.347787 9.57618563 -26.20874023 7.1003418 C-20.6818705 -2.81215901 -9.91014657 -0.40931162 0 0 Z " fill="#FA7401" transform="translate(192.4375,48.4375)"/>
<path d="M0 0 C10.56 0 21.12 0 32 0 C32.2776217 7.40324543 32.51564779 14.78805044 32.65917969 22.19238281 C32.71905823 24.70277465 32.80059782 27.21275649 32.90527344 29.72167969 C33.47504687 43.74257482 33.84603091 54.63740382 24.31854248 65.64892578 C22.9241067 67.14267556 21.46735673 68.57781724 20 70 C18.20087857 71.79912143 18.84687991 74.52579265 18.82641602 76.95336914 C18.81292618 78.22882095 18.79943634 79.50427277 18.78553772 80.81837463 C18.78047777 81.50496218 18.77541782 82.19154972 18.77020454 82.89894295 C18.7538096 85.04782355 18.73056707 87.19652811 18.70530701 89.34532166 C18.63452905 95.45693164 18.57470277 101.56861798 18.52319336 107.68041992 C18.49122419 111.41642793 18.44989161 115.15224114 18.40299797 118.88809013 C18.38706901 120.3076873 18.37470586 121.72732943 18.36609077 123.14698982 C18.29831521 134.16688548 17.73138424 144.75489082 11 154 C8.428545 155.65636465 5.97688701 156.39041876 3 157 C2.4033252 157.16838379 1.80665039 157.33676758 1.19189453 157.51025391 C-11.28752314 160.29859338 -26.62232929 159.31168528 -37.43359375 152.45703125 C-47.0972751 145.52266549 -51.72173 137.0101904 -54.60546875 125.60546875 C-55 123 -55 123 -55 116 C-45.76 116 -36.52 116 -27 116 C-26.01 118.64 -25.02 121.28 -24 124 C-22.0623988 126.28989232 -20.66218837 127.66890582 -18 129 C-12.88997244 129.25550138 -8.7154027 129.24542986 -4 127 C-2.6237206 125.08235826 -2.6237206 125.08235826 -2 123 C-1.67 122.34 -1.34 121.68 -1 121 C-0.89554621 119.39114541 -0.85346422 117.77806253 -0.84178162 116.16586304 C-0.8319928 115.14500107 -0.82220398 114.1241391 -0.81211853 113.07234192 C-0.80636307 111.94809311 -0.8006076 110.8238443 -0.79467773 109.66552734 C-0.78477814 108.48505325 -0.77487854 107.30457916 -0.76467896 106.08833313 C-0.73845843 102.84683218 -0.71660989 99.60533657 -0.69667697 96.36379194 C-0.67483152 92.97782185 -0.6474358 89.59189686 -0.62062073 86.20596313 C-0.57067431 79.79222272 -0.52574273 73.3784573 -0.48259836 66.96466792 C-0.43324262 59.66364246 -0.37831834 52.36266226 -0.32291877 45.06168056 C-0.20906881 30.04116103 -0.10297153 15.02059878 0 0 Z " fill="#0073F9" transform="translate(99,48)"/>
<path d="M0 0 C14.19 0 28.38 0 43 0 C43 14.52 43 29.04 43 44 C42.67 44 42.34 44 42 44 C41.79697266 43.03513672 41.79697266 43.03513672 41.58984375 42.05078125 C37.98387072 26.91433159 30.3716703 15.35061675 17.125 7.125 C11.62286552 4.07690236 6.14382309 2.26988469 0 1 C0 0.67 0 0.34 0 0 Z " fill="#000000" transform="translate(213,0)"/>
<path d="M0 0 C14.52 0 29.04 0 44 0 C44 0.33 44 0.66 44 1 C43.27296875 1.13535156 42.5459375 1.27070313 41.796875 1.41015625 C28.0225529 4.35927393 17.17513475 11.3090696 8.99609375 22.8203125 C4.76160881 29.59195231 2.45811138 36.1678589 1 44 C0.67 44 0.34 44 0 44 C0 29.48 0 14.96 0 0 Z " fill="#000000" transform="translate(0,0)"/>
<path d="M0 0 C0.33 0 0.66 0 1 0 C1.20625 1.2375 1.4125 2.475 1.625 3.75 C4.60801715 16.85470292 12.37085266 27.46594996 23.4375 34.9375 C27.75350866 37.51983103 31.93096611 39.19722232 36.80859375 40.39453125 C39 41 39 41 43 43 C28.81 43 14.62 43 0 43 C0 28.81 0 14.62 0 0 Z " fill="#000000" transform="translate(0,213)"/>
<path d="M0 0 C0.33 0 0.66 0 1 0 C1 13.53 1 27.06 1 41 C-13.19 41 -27.38 41 -42 41 C-38.89340915 39.44670458 -36.64586967 38.58103529 -33.375 37.75 C-20.77078538 34.01130492 -11.43967316 25.82154465 -5.0625 14.4375 C-2.63911105 9.65803846 -0.92999856 5.26999184 0 0 Z " fill="#000000" transform="translate(255,215)"/>
<path d="M0 0 C9.24 0 18.48 0 28 0 C28 0.66 28 1.32 28 2 C19.42 2 10.84 2 2 2 C2 4.64 2 7.28 2 10 C0 7 0 7 0 0 Z " fill="#0066DA" transform="translate(44,164)"/>
</svg>
